%TF.GenerationSoftware,KiCad,Pcbnew,(6.0.11)*%
%TF.CreationDate,2023-05-30T15:21:17-07:00*%
%TF.ProjectId,Cubesat_Power_Supply_Faceplates,43756265-7361-4745-9f50-6f7765725f53,rev?*%
%TF.SameCoordinates,Original*%
%TF.FileFunction,Legend,Top*%
%TF.FilePolarity,Positive*%
%FSLAX46Y46*%
G04 Gerber Fmt 4.6, Leading zero omitted, Abs format (unit mm)*
G04 Created by KiCad (PCBNEW (6.0.11)) date 2023-05-30 15:21:17*
%MOMM*%
%LPD*%
G01*
G04 APERTURE LIST*
%ADD10C,0.500000*%
%TA.AperFunction,Profile*%
%ADD11C,0.100000*%
%TD*%
%TA.AperFunction,Profile*%
%ADD12C,0.150000*%
%TD*%
%ADD13C,1.000000*%
G04 APERTURE END LIST*
D10*
X436000000Y-127000000D02*
X442000000Y-127000000D01*
X439000000Y-127000000D02*
X436000000Y-130000000D01*
X439000000Y-127000000D02*
X439000000Y-121000000D01*
X433000000Y-130000000D02*
X436000000Y-127000000D01*
X442000000Y-127000000D02*
X439000000Y-130000000D01*
D11*
X413000000Y-164000000D02*
X465000000Y-164000000D01*
X302000000Y-243000000D02*
G75*
G03*
X302000000Y-243000000I-2000000J0D01*
G01*
X304000000Y-159000000D02*
G75*
G03*
X304000000Y-159000000I-2000000J0D01*
G01*
X135000000Y-164000000D02*
X80000000Y-164000000D01*
X321350000Y-122000000D02*
G75*
G03*
X321350000Y-122000000I-6350000J0D01*
G01*
X465000000Y-164000000D02*
X465000000Y-167000000D01*
X300000000Y-167000000D02*
X248000000Y-167000000D01*
X328525000Y-149000000D02*
G75*
G03*
X328525000Y-149000000I-4000000J0D01*
G01*
X304000000Y-85000000D02*
G75*
G03*
X304000000Y-85000000I-2000000J0D01*
G01*
X248000000Y-167000000D02*
X248000000Y-164000000D01*
X478600000Y-150750000D02*
G75*
G03*
X478600000Y-150750000I-1600000J0D01*
G01*
X80000000Y-164000000D02*
X80000000Y-80000000D01*
X271350000Y-122000000D02*
G75*
G03*
X271350000Y-122000000I-6350000J0D01*
G01*
X80000000Y-80000000D02*
X524000000Y-80000000D01*
X415000000Y-85000000D02*
G75*
G03*
X415000000Y-85000000I-2000000J0D01*
G01*
X359475000Y-95000000D02*
G75*
G03*
X359475000Y-95000000I-4000000J0D01*
G01*
X468000000Y-164000000D02*
X468000000Y-167000000D01*
X524000000Y-80000000D02*
X524000000Y-164000000D01*
X520000000Y-247000000D02*
X80000000Y-247000000D01*
D12*
X230010000Y-153040000D02*
G75*
G03*
X230010000Y-153040000I-1550000J0D01*
G01*
X137090000Y-153040000D02*
G75*
G03*
X137090000Y-153040000I-1550000J0D01*
G01*
D11*
X193000000Y-85000000D02*
G75*
G03*
X193000000Y-85000000I-2000000J0D01*
G01*
X465000000Y-167000000D02*
X413000000Y-167000000D01*
X468000000Y-167000000D02*
X520000000Y-167000000D01*
X113750000Y-102000000D02*
G75*
G03*
X113750000Y-102000000I-1750000J0D01*
G01*
X309475000Y-95000000D02*
G75*
G03*
X309475000Y-95000000I-4000000J0D01*
G01*
X518000000Y-207000000D02*
G75*
G03*
X518000000Y-207000000I-2000000J0D01*
G01*
X413000000Y-167000000D02*
X413000000Y-164000000D01*
X441000000Y-139000000D02*
G75*
G03*
X441000000Y-139000000I-4000000J0D01*
G01*
X422000000Y-171000000D02*
G75*
G03*
X422000000Y-171000000I-2000000J0D01*
G01*
X245000000Y-164000000D02*
X245000000Y-167000000D01*
X355000000Y-167000000D02*
X303000000Y-167000000D01*
X358000000Y-164000000D02*
X410000000Y-164000000D01*
X520000000Y-167000000D02*
X520000000Y-247000000D01*
D12*
X230010000Y-90960000D02*
G75*
G03*
X230010000Y-90960000I-1550000J0D01*
G01*
D11*
X303000000Y-167000000D02*
X303000000Y-164000000D01*
X148000000Y-183000000D02*
X120000000Y-183000000D01*
X120000000Y-183000000D02*
X120000000Y-231000000D01*
X120000000Y-231000000D02*
X148000000Y-231000000D01*
X148000000Y-231000000D02*
X148000000Y-183000000D01*
X193000000Y-164000000D02*
X245000000Y-164000000D01*
X410000000Y-167000000D02*
X358000000Y-167000000D01*
D12*
X105000000Y-106000000D02*
X119000000Y-106000000D01*
X119000000Y-106000000D02*
X119000000Y-138000000D01*
X119000000Y-138000000D02*
X105000000Y-138000000D01*
X105000000Y-138000000D02*
X105000000Y-106000000D01*
D11*
X415000000Y-159000000D02*
G75*
G03*
X415000000Y-159000000I-2000000J0D01*
G01*
X80000000Y-247000000D02*
X80000000Y-167000000D01*
X135000000Y-167000000D02*
X135000000Y-164000000D01*
X371350000Y-122000000D02*
G75*
G03*
X371350000Y-122000000I-6350000J0D01*
G01*
X516000000Y-159000000D02*
G75*
G03*
X516000000Y-159000000I-2000000J0D01*
G01*
X92000000Y-85000000D02*
G75*
G03*
X92000000Y-85000000I-2000000J0D01*
G01*
X113750000Y-142000000D02*
G75*
G03*
X113750000Y-142000000I-1750000J0D01*
G01*
X359475000Y-149000000D02*
G75*
G03*
X359475000Y-149000000I-4000000J0D01*
G01*
X156500000Y-207000000D02*
G75*
G03*
X156500000Y-207000000I-2500000J0D01*
G01*
X92000000Y-159000000D02*
G75*
G03*
X92000000Y-159000000I-2000000J0D01*
G01*
X358000000Y-167000000D02*
X358000000Y-164000000D01*
X190000000Y-167000000D02*
X190000000Y-164000000D01*
X302000000Y-171000000D02*
G75*
G03*
X302000000Y-171000000I-2000000J0D01*
G01*
X378525000Y-149000000D02*
G75*
G03*
X378525000Y-149000000I-4000000J0D01*
G01*
X278525000Y-149000000D02*
G75*
G03*
X278525000Y-149000000I-4000000J0D01*
G01*
X355000000Y-164000000D02*
X355000000Y-167000000D01*
X245000000Y-167000000D02*
X193000000Y-167000000D01*
X309475000Y-149000000D02*
G75*
G03*
X309475000Y-149000000I-4000000J0D01*
G01*
D12*
X479000000Y-139000000D02*
G75*
G03*
X479000000Y-139000000I-12000000J0D01*
G01*
D11*
X182000000Y-243000000D02*
G75*
G03*
X182000000Y-243000000I-2000000J0D01*
G01*
X422000000Y-243000000D02*
G75*
G03*
X422000000Y-243000000I-2000000J0D01*
G01*
X458600000Y-127250000D02*
G75*
G03*
X458600000Y-127250000I-1600000J0D01*
G01*
X516000000Y-85000000D02*
G75*
G03*
X516000000Y-85000000I-2000000J0D01*
G01*
X86000000Y-207000000D02*
G75*
G03*
X86000000Y-207000000I-2000000J0D01*
G01*
X193000000Y-167000000D02*
X193000000Y-164000000D01*
X303000000Y-164000000D02*
X355000000Y-164000000D01*
X248000000Y-164000000D02*
X300000000Y-164000000D01*
X300000000Y-164000000D02*
X300000000Y-167000000D01*
X138000000Y-167000000D02*
X138000000Y-164000000D01*
X116500000Y-207000000D02*
G75*
G03*
X116500000Y-207000000I-2500000J0D01*
G01*
X182000000Y-171000000D02*
G75*
G03*
X182000000Y-171000000I-2000000J0D01*
G01*
X138000000Y-164000000D02*
X190000000Y-164000000D01*
X80000000Y-167000000D02*
X135000000Y-167000000D01*
X225000000Y-93500000D02*
X139000000Y-93500000D01*
X139000000Y-93500000D02*
X139000000Y-150500000D01*
X139000000Y-150500000D02*
X225000000Y-150500000D01*
X225000000Y-150500000D02*
X225000000Y-93500000D01*
X259475000Y-95000000D02*
G75*
G03*
X259475000Y-95000000I-4000000J0D01*
G01*
X410000000Y-164000000D02*
X410000000Y-167000000D01*
X259475000Y-149000000D02*
G75*
G03*
X259475000Y-149000000I-4000000J0D01*
G01*
X190000000Y-167000000D02*
X138000000Y-167000000D01*
D12*
X137090000Y-90960000D02*
G75*
G03*
X137090000Y-90960000I-1550000J0D01*
G01*
D11*
X524000000Y-164000000D02*
X468000000Y-164000000D01*
X193000000Y-159000000D02*
G75*
G03*
X193000000Y-159000000I-2000000J0D01*
G01*
D13*
X405785714Y-94642857D02*
X405500000Y-94928571D01*
X404642857Y-95214285D01*
X404071428Y-95214285D01*
X403214285Y-94928571D01*
X402642857Y-94357142D01*
X402357142Y-93785714D01*
X402071428Y-92642857D01*
X402071428Y-91785714D01*
X402357142Y-90642857D01*
X402642857Y-90071428D01*
X403214285Y-89500000D01*
X404071428Y-89214285D01*
X404642857Y-89214285D01*
X405500000Y-89500000D01*
X405785714Y-89785714D01*
X410928571Y-91214285D02*
X410928571Y-95214285D01*
X408357142Y-91214285D02*
X408357142Y-94357142D01*
X408642857Y-94928571D01*
X409214285Y-95214285D01*
X410071428Y-95214285D01*
X410642857Y-94928571D01*
X410928571Y-94642857D01*
X413785714Y-95214285D02*
X413785714Y-89214285D01*
X413785714Y-91500000D02*
X414357142Y-91214285D01*
X415500000Y-91214285D01*
X416071428Y-91500000D01*
X416357142Y-91785714D01*
X416642857Y-92357142D01*
X416642857Y-94071428D01*
X416357142Y-94642857D01*
X416071428Y-94928571D01*
X415500000Y-95214285D01*
X414357142Y-95214285D01*
X413785714Y-94928571D01*
X421500000Y-94928571D02*
X420928571Y-95214285D01*
X419785714Y-95214285D01*
X419214285Y-94928571D01*
X418928571Y-94357142D01*
X418928571Y-92071428D01*
X419214285Y-91500000D01*
X419785714Y-91214285D01*
X420928571Y-91214285D01*
X421500000Y-91500000D01*
X421785714Y-92071428D01*
X421785714Y-92642857D01*
X418928571Y-93214285D01*
X424071428Y-94928571D02*
X424642857Y-95214285D01*
X425785714Y-95214285D01*
X426357142Y-94928571D01*
X426642857Y-94357142D01*
X426642857Y-94071428D01*
X426357142Y-93500000D01*
X425785714Y-93214285D01*
X424928571Y-93214285D01*
X424357142Y-92928571D01*
X424071428Y-92357142D01*
X424071428Y-92071428D01*
X424357142Y-91500000D01*
X424928571Y-91214285D01*
X425785714Y-91214285D01*
X426357142Y-91500000D01*
X431785714Y-95214285D02*
X431785714Y-92071428D01*
X431500000Y-91500000D01*
X430928571Y-91214285D01*
X429785714Y-91214285D01*
X429214285Y-91500000D01*
X431785714Y-94928571D02*
X431214285Y-95214285D01*
X429785714Y-95214285D01*
X429214285Y-94928571D01*
X428928571Y-94357142D01*
X428928571Y-93785714D01*
X429214285Y-93214285D01*
X429785714Y-92928571D01*
X431214285Y-92928571D01*
X431785714Y-92642857D01*
X433785714Y-91214285D02*
X436071428Y-91214285D01*
X434642857Y-89214285D02*
X434642857Y-94357142D01*
X434928571Y-94928571D01*
X435500000Y-95214285D01*
X436071428Y-95214285D01*
X442642857Y-95214285D02*
X442642857Y-89214285D01*
X444928571Y-89214285D01*
X445500000Y-89500000D01*
X445785714Y-89785714D01*
X446071428Y-90357142D01*
X446071428Y-91214285D01*
X445785714Y-91785714D01*
X445500000Y-92071428D01*
X444928571Y-92357142D01*
X442642857Y-92357142D01*
X449500000Y-95214285D02*
X448928571Y-94928571D01*
X448642857Y-94642857D01*
X448357142Y-94071428D01*
X448357142Y-92357142D01*
X448642857Y-91785714D01*
X448928571Y-91500000D01*
X449500000Y-91214285D01*
X450357142Y-91214285D01*
X450928571Y-91500000D01*
X451214285Y-91785714D01*
X451500000Y-92357142D01*
X451500000Y-94071428D01*
X451214285Y-94642857D01*
X450928571Y-94928571D01*
X450357142Y-95214285D01*
X449500000Y-95214285D01*
X453500000Y-91214285D02*
X454642857Y-95214285D01*
X455785714Y-92357142D01*
X456928571Y-95214285D01*
X458071428Y-91214285D01*
X462642857Y-94928571D02*
X462071428Y-95214285D01*
X460928571Y-95214285D01*
X460357142Y-94928571D01*
X460071428Y-94357142D01*
X460071428Y-92071428D01*
X460357142Y-91500000D01*
X460928571Y-91214285D01*
X462071428Y-91214285D01*
X462642857Y-91500000D01*
X462928571Y-92071428D01*
X462928571Y-92642857D01*
X460071428Y-93214285D01*
X465499999Y-95214285D02*
X465499999Y-91214285D01*
X465499999Y-92357142D02*
X465785714Y-91785714D01*
X466071428Y-91500000D01*
X466642857Y-91214285D01*
X467214285Y-91214285D01*
X473500000Y-94928571D02*
X474357142Y-95214285D01*
X475785714Y-95214285D01*
X476357142Y-94928571D01*
X476642857Y-94642857D01*
X476928571Y-94071428D01*
X476928571Y-93500000D01*
X476642857Y-92928571D01*
X476357142Y-92642857D01*
X475785714Y-92357142D01*
X474642857Y-92071428D01*
X474071428Y-91785714D01*
X473785714Y-91500000D01*
X473500000Y-90928571D01*
X473500000Y-90357142D01*
X473785714Y-89785714D01*
X474071428Y-89500000D01*
X474642857Y-89214285D01*
X476071428Y-89214285D01*
X476928571Y-89500000D01*
X482071428Y-91214285D02*
X482071428Y-95214285D01*
X479500000Y-91214285D02*
X479500000Y-94357142D01*
X479785714Y-94928571D01*
X480357142Y-95214285D01*
X481214285Y-95214285D01*
X481785714Y-94928571D01*
X482071428Y-94642857D01*
X484928571Y-91214285D02*
X484928571Y-97214285D01*
X484928571Y-91500000D02*
X485500000Y-91214285D01*
X486642857Y-91214285D01*
X487214285Y-91500000D01*
X487500000Y-91785714D01*
X487785714Y-92357142D01*
X487785714Y-94071428D01*
X487500000Y-94642857D01*
X487214285Y-94928571D01*
X486642857Y-95214285D01*
X485500000Y-95214285D01*
X484928571Y-94928571D01*
X490357142Y-91214285D02*
X490357142Y-97214285D01*
X490357142Y-91500000D02*
X490928571Y-91214285D01*
X492071428Y-91214285D01*
X492642857Y-91500000D01*
X492928571Y-91785714D01*
X493214285Y-92357142D01*
X493214285Y-94071428D01*
X492928571Y-94642857D01*
X492642857Y-94928571D01*
X492071428Y-95214285D01*
X490928571Y-95214285D01*
X490357142Y-94928571D01*
X496642857Y-95214285D02*
X496071428Y-94928571D01*
X495785714Y-94357142D01*
X495785714Y-89214285D01*
X498357142Y-91214285D02*
X499785714Y-95214285D01*
X501214285Y-91214285D02*
X499785714Y-95214285D01*
X499214285Y-96642857D01*
X498928571Y-96928571D01*
X498357142Y-97214285D01*
X322547619Y-92261904D02*
X320166666Y-92261904D01*
X319928571Y-94642857D01*
X320166666Y-94404761D01*
X320642857Y-94166666D01*
X321833333Y-94166666D01*
X322309523Y-94404761D01*
X322547619Y-94642857D01*
X322785714Y-95119047D01*
X322785714Y-96309523D01*
X322547619Y-96785714D01*
X322309523Y-97023809D01*
X321833333Y-97261904D01*
X320642857Y-97261904D01*
X320166666Y-97023809D01*
X319928571Y-96785714D01*
X324214285Y-92261904D02*
X325880952Y-97261904D01*
X327547619Y-92261904D01*
X370404761Y-97261904D02*
X367547619Y-97261904D01*
X368976190Y-97261904D02*
X368976190Y-92261904D01*
X368500000Y-92976190D01*
X368023809Y-93452380D01*
X367547619Y-93690476D01*
X372309523Y-92738095D02*
X372547619Y-92500000D01*
X373023809Y-92261904D01*
X374214285Y-92261904D01*
X374690476Y-92500000D01*
X374928571Y-92738095D01*
X375166666Y-93214285D01*
X375166666Y-93690476D01*
X374928571Y-94404761D01*
X372071428Y-97261904D01*
X375166666Y-97261904D01*
X376595238Y-92261904D02*
X378261904Y-97261904D01*
X379928571Y-92261904D01*
D10*
X458785714Y-121071428D02*
X458642857Y-121214285D01*
X458214285Y-121357142D01*
X457928571Y-121357142D01*
X457500000Y-121214285D01*
X457214285Y-120928571D01*
X457071428Y-120642857D01*
X456928571Y-120071428D01*
X456928571Y-119642857D01*
X457071428Y-119071428D01*
X457214285Y-118785714D01*
X457500000Y-118500000D01*
X457928571Y-118357142D01*
X458214285Y-118357142D01*
X458642857Y-118500000D01*
X458785714Y-118642857D01*
X460500000Y-121357142D02*
X460214285Y-121214285D01*
X460071428Y-121071428D01*
X459928571Y-120785714D01*
X459928571Y-119928571D01*
X460071428Y-119642857D01*
X460214285Y-119500000D01*
X460500000Y-119357142D01*
X460928571Y-119357142D01*
X461214285Y-119500000D01*
X461357142Y-119642857D01*
X461500000Y-119928571D01*
X461500000Y-120785714D01*
X461357142Y-121071428D01*
X461214285Y-121214285D01*
X460928571Y-121357142D01*
X460500000Y-121357142D01*
X462785714Y-121357142D02*
X462785714Y-119357142D01*
X462785714Y-119642857D02*
X462928571Y-119500000D01*
X463214285Y-119357142D01*
X463642857Y-119357142D01*
X463928571Y-119500000D01*
X464071428Y-119785714D01*
X464071428Y-121357142D01*
X464071428Y-119785714D02*
X464214285Y-119500000D01*
X464500000Y-119357142D01*
X464928571Y-119357142D01*
X465214285Y-119500000D01*
X465357142Y-119785714D01*
X465357142Y-121357142D01*
X466785714Y-119357142D02*
X466785714Y-122357142D01*
X466785714Y-119500000D02*
X467071428Y-119357142D01*
X467642857Y-119357142D01*
X467928571Y-119500000D01*
X468071428Y-119642857D01*
X468214285Y-119928571D01*
X468214285Y-120785714D01*
X468071428Y-121071428D01*
X467928571Y-121214285D01*
X467642857Y-121357142D01*
X467071428Y-121357142D01*
X466785714Y-121214285D01*
X470785714Y-119357142D02*
X470785714Y-121357142D01*
X469500000Y-119357142D02*
X469500000Y-120928571D01*
X469642857Y-121214285D01*
X469928571Y-121357142D01*
X470357142Y-121357142D01*
X470642857Y-121214285D01*
X470785714Y-121071428D01*
X471785714Y-119357142D02*
X472928571Y-119357142D01*
X472214285Y-118357142D02*
X472214285Y-120928571D01*
X472357142Y-121214285D01*
X472642857Y-121357142D01*
X472928571Y-121357142D01*
X475071428Y-121214285D02*
X474785714Y-121357142D01*
X474214285Y-121357142D01*
X473928571Y-121214285D01*
X473785714Y-120928571D01*
X473785714Y-119785714D01*
X473928571Y-119500000D01*
X474214285Y-119357142D01*
X474785714Y-119357142D01*
X475071428Y-119500000D01*
X475214285Y-119785714D01*
X475214285Y-120071428D01*
X473785714Y-120357142D01*
X476500000Y-121357142D02*
X476500000Y-119357142D01*
X476500000Y-119928571D02*
X476642857Y-119642857D01*
X476785714Y-119500000D01*
X477071428Y-119357142D01*
X477357142Y-119357142D01*
D13*
X266119047Y-92261904D02*
X269214285Y-92261904D01*
X267547619Y-94166666D01*
X268261904Y-94166666D01*
X268738095Y-94404761D01*
X268976190Y-94642857D01*
X269214285Y-95119047D01*
X269214285Y-96309523D01*
X268976190Y-96785714D01*
X268738095Y-97023809D01*
X268261904Y-97261904D01*
X266833333Y-97261904D01*
X266357142Y-97023809D01*
X266119047Y-96785714D01*
X271357142Y-96785714D02*
X271595238Y-97023809D01*
X271357142Y-97261904D01*
X271119047Y-97023809D01*
X271357142Y-96785714D01*
X271357142Y-97261904D01*
X273261904Y-92261904D02*
X276357142Y-92261904D01*
X274690476Y-94166666D01*
X275404761Y-94166666D01*
X275880952Y-94404761D01*
X276119047Y-94642857D01*
X276357142Y-95119047D01*
X276357142Y-96309523D01*
X276119047Y-96785714D01*
X275880952Y-97023809D01*
X275404761Y-97261904D01*
X273976190Y-97261904D01*
X273500000Y-97023809D01*
X273261904Y-96785714D01*
X277785714Y-92261904D02*
X279452380Y-97261904D01*
X281119047Y-92261904D01*
%TO.C,G\u002A\u002A\u002A*%
G36*
X454365116Y-97305332D02*
G01*
X454415106Y-97340146D01*
X454423518Y-97426206D01*
X454376634Y-97621088D01*
X454271002Y-97934581D01*
X454103170Y-98376473D01*
X453869685Y-98956549D01*
X453701967Y-99362222D01*
X453481495Y-99894425D01*
X453285696Y-100372485D01*
X453123140Y-100775022D01*
X453002401Y-101080661D01*
X452932050Y-101268023D01*
X452917613Y-101318246D01*
X452997870Y-101294286D01*
X453212493Y-101213555D01*
X453539666Y-101084716D01*
X453957576Y-100916434D01*
X454444408Y-100717370D01*
X454783050Y-100577412D01*
X455311874Y-100360604D01*
X455794754Y-100167609D01*
X456207770Y-100007587D01*
X456527002Y-99889698D01*
X456728533Y-99823101D01*
X456782989Y-99811573D01*
X456914549Y-99878977D01*
X456937333Y-99967912D01*
X456906937Y-100031324D01*
X456805255Y-100112463D01*
X456616543Y-100219117D01*
X456325059Y-100359076D01*
X455915059Y-100540129D01*
X455370801Y-100770067D01*
X455033830Y-100909753D01*
X454508420Y-101129536D01*
X454041602Y-101330512D01*
X453654167Y-101503257D01*
X453366907Y-101638349D01*
X453200612Y-101726365D01*
X453167586Y-101755541D01*
X453253284Y-101803511D01*
X453473569Y-101905455D01*
X453806131Y-102051660D01*
X454228658Y-102232410D01*
X454718839Y-102437992D01*
X455039338Y-102570533D01*
X455560579Y-102788826D01*
X456027930Y-102991909D01*
X456418919Y-103169415D01*
X456711072Y-103310975D01*
X456881916Y-103406221D01*
X456916824Y-103436764D01*
X456903555Y-103589369D01*
X456868363Y-103639743D01*
X456782902Y-103649065D01*
X456590631Y-103603624D01*
X456281221Y-103499800D01*
X455844345Y-103333973D01*
X455269678Y-103102522D01*
X454901950Y-102950445D01*
X454376759Y-102734327D01*
X453904560Y-102544937D01*
X453507325Y-102390684D01*
X453207027Y-102279979D01*
X453025639Y-102221233D01*
X452981385Y-102215298D01*
X452999688Y-102302870D01*
X453075487Y-102524458D01*
X453200407Y-102858083D01*
X453366073Y-103281766D01*
X453564109Y-103773527D01*
X453714107Y-104138288D01*
X453975678Y-104776825D01*
X454171222Y-105275167D01*
X454304238Y-105647522D01*
X454378221Y-105908096D01*
X454396670Y-106071098D01*
X454363080Y-106150735D01*
X454280950Y-106161215D01*
X454206558Y-106138972D01*
X454139114Y-106049782D01*
X454021101Y-105828203D01*
X453864398Y-105499243D01*
X453680883Y-105087912D01*
X453482434Y-104619218D01*
X453467326Y-104582563D01*
X453196508Y-103924094D01*
X452983042Y-103406400D01*
X452819438Y-103013833D01*
X452698207Y-102730740D01*
X452611858Y-102541473D01*
X452552903Y-102430380D01*
X452513852Y-102381811D01*
X452487215Y-102380115D01*
X452465503Y-102409642D01*
X452445492Y-102447302D01*
X452401442Y-102545984D01*
X452297911Y-102788793D01*
X452140060Y-103163351D01*
X451933054Y-103657277D01*
X451682057Y-104258191D01*
X451392232Y-104953713D01*
X451068743Y-105731463D01*
X450716754Y-106579063D01*
X450341428Y-107484131D01*
X449947930Y-108434288D01*
X449902861Y-108543192D01*
X449507701Y-109496803D01*
X449129891Y-110405980D01*
X448774607Y-111258425D01*
X448447023Y-112041840D01*
X448152316Y-112743926D01*
X447895661Y-113352386D01*
X447682233Y-113854921D01*
X447517208Y-114239232D01*
X447405762Y-114493022D01*
X447353069Y-114603993D01*
X447350984Y-114607073D01*
X447208397Y-114706858D01*
X447092248Y-114646197D01*
X447062668Y-114587776D01*
X447076557Y-114468107D01*
X447147478Y-114224703D01*
X447264872Y-113889083D01*
X447418175Y-113492769D01*
X447481103Y-113338943D01*
X448001274Y-112085984D01*
X448460453Y-110979806D01*
X448862375Y-110010717D01*
X449210777Y-109169024D01*
X449509393Y-108445034D01*
X449761959Y-107829054D01*
X449972211Y-107311393D01*
X450143884Y-106882356D01*
X450280714Y-106532252D01*
X450386436Y-106251388D01*
X450464786Y-106030071D01*
X450519499Y-105858608D01*
X450554312Y-105727307D01*
X450572958Y-105626475D01*
X450579175Y-105546420D01*
X450576697Y-105477448D01*
X450569261Y-105409866D01*
X450561751Y-105345506D01*
X450452150Y-104877596D01*
X450234545Y-104379500D01*
X449942072Y-103914593D01*
X449632370Y-103567964D01*
X449149662Y-103221744D01*
X448579755Y-102954099D01*
X447996586Y-102798227D01*
X447885058Y-102783407D01*
X447610808Y-102744786D01*
X447467243Y-102692744D01*
X447415776Y-102609308D01*
X447412333Y-102563240D01*
X447432806Y-102463409D01*
X447521839Y-102414953D01*
X447720852Y-102402747D01*
X447846296Y-102404769D01*
X448504371Y-102502734D01*
X449140856Y-102751546D01*
X449724100Y-103133021D01*
X450222453Y-103628972D01*
X450403671Y-103874255D01*
X450583271Y-104166909D01*
X450725632Y-104442169D01*
X450798860Y-104636938D01*
X450856321Y-104814831D01*
X450917550Y-104891506D01*
X450919042Y-104891573D01*
X450963149Y-104815724D01*
X451064854Y-104598253D01*
X451217664Y-104254271D01*
X451415084Y-103798892D01*
X451650619Y-103247228D01*
X451917777Y-102614392D01*
X452210063Y-101915497D01*
X452520983Y-101165654D01*
X452542148Y-101114385D01*
X452855514Y-100359636D01*
X453152387Y-99653356D01*
X453426052Y-99010910D01*
X453669793Y-98447659D01*
X453876894Y-97978964D01*
X454040641Y-97620190D01*
X454154317Y-97386698D01*
X454211209Y-97293851D01*
X454212524Y-97293142D01*
X454365116Y-97305332D01*
G37*
%TD*%
%LPC*%
M02*
